<svg xmlns="http://www.w3.org/2000/svg" viewBox="0 0 24 24" width="50" height="50">
  <path d="M12 0C5.37 0 0 5.37 0 12c0 5.29 3.44 9.8 8.2 11.4.6.1.8-.2.8-.4v-1.5c0-.5-.2-.8-.6-.9-2.3-.5-2.8-1.1-2.8-2.2 0-.7.3-1.3.7-1.8.3-.5.7-.6 1.3-.6.9 0 1.7.3 2.4.7.7-.3 1.5-.7 2.3-.7 1.6 0 3 1.4 3 3.2 0 1.7-.7 2.8-2.1 3.5-.4.2-.6.4-.7.7-.1.2-.2.3-.2.5v1.5c0 .2.2.5.8.4 4.8-1.6 8.2-6.1 8.2-11.4 0-6.63-5.37-12-12-12zm-1 17h2v3h-2v-3zm0-4h2v2h-2v-2zm-1-2v-5h2v5h-2zm1-11c4.2 0 7.6 3.5 7.6 7.7s-3.4 7.7-7.6 7.7-7.6-3.5-7.6-7.7 3.4-7.7 7.6-7.7z" fill="#ffffff"/>
</svg>
